# xmcd CD database file
#
# Track frame offsets:
#	150
#	34452
#	202882
#	294657
#
# Disc length: 4217 seconds
#
# Revision: 3
# Processed by: cddbd v1.5PL3 Copyright (c) Steve Scherf et al.
# Submitted via: CDex 1.50Beta7
#
DISCID=38107704
DTITLE=國府田マリ子 - 國府田マリ子のRadio Canvas Vol.2 [CD2]
DYEAR=1995
DGENRE=Other
TTITLE0=土門仁・柳瀬洋美 - Holiday Seaside Air
TTITLE1=國府田マリ子 - ツインビーPARADISE
TTITLE2=吉水孝宏・丹下桜 - うっきいずCAFE
TTITLE3=丹下桜 with BELLCLIPS - 星空のホワイトキャッスル
EXTD=YEAR: 1995
EXTT0=
EXTT1=
EXTT2=
EXTT3=
PLAYORDER=
